<svg width="156" height="34" viewBox="0 0 156 34" fill="none" xmlns="http://www.w3.org/2000/svg">
<path d="M46.26 18.265L44.895 16.075C44.765 16.105 44.62 16.125 44.46 16.135C44.3 16.155 44.135 16.165 43.965 16.165C42.875 16.165 42.01 15.975 41.37 15.595C40.74 15.215 40.29 14.635 40.02 13.855C39.75 13.075 39.615 12.095 39.615 10.915C39.615 9.725 39.75 8.74 40.02 7.96C40.29 7.17 40.74 6.575 41.37 6.175C42.01 5.775 42.875 5.575 43.965 5.575C45.055 5.575 45.915 5.775 46.545 6.175C47.185 6.565 47.64 7.155 47.91 7.945C48.19 8.735 48.33 9.725 48.33 10.915C48.33 12.055 48.21 13.005 47.97 13.765C47.73 14.515 47.315 15.085 46.725 15.475L47.97 17.44L46.26 18.265ZM43.965 14.425C44.595 14.425 45.07 14.3 45.39 14.05C45.71 13.79 45.925 13.4 46.035 12.88C46.155 12.35 46.215 11.695 46.215 10.915C46.215 10.145 46.155 9.495 46.035 8.965C45.925 8.425 45.705 8.015 45.375 7.735C45.055 7.455 44.585 7.315 43.965 7.315C43.345 7.315 42.87 7.455 42.54 7.735C42.22 8.015 41.995 8.42 41.865 8.95C41.745 9.48 41.685 10.135 41.685 10.915C41.685 11.685 41.745 12.335 41.865 12.865C41.985 13.385 42.205 13.775 42.525 14.035C42.855 14.295 43.335 14.425 43.965 14.425ZM53.6563 16.165C53.2763 16.165 52.8613 16.14 52.4113 16.09C51.9613 16.05 51.5213 16 51.0913 15.94C50.6713 15.87 50.3113 15.81 50.0113 15.76L50.1463 14.125C50.4563 14.165 50.8163 14.21 51.2263 14.26C51.6363 14.3 52.0413 14.335 52.4413 14.365C52.8513 14.395 53.2063 14.41 53.5063 14.41C54.0763 14.41 54.4913 14.3 54.7513 14.08C55.0113 13.85 55.1413 13.495 55.1413 13.015C55.1413 12.755 55.0863 12.55 54.9763 12.4C54.8763 12.24 54.6913 12.115 54.4213 12.025C54.1513 11.925 53.7763 11.83 53.2963 11.74C52.4963 11.59 51.8463 11.405 51.3463 11.185C50.8563 10.965 50.4963 10.655 50.2663 10.255C50.0463 9.855 49.9363 9.32 49.9363 8.65C49.9363 7.87 50.0813 7.26 50.3713 6.82C50.6613 6.37 51.0763 6.05 51.6163 5.86C52.1563 5.67 52.7913 5.575 53.5213 5.575C53.8513 5.575 54.2263 5.595 54.6463 5.635C55.0763 5.665 55.4963 5.705 55.9063 5.755C56.3263 5.805 56.6813 5.86 56.9713 5.92L56.8813 7.57C56.5813 7.53 56.2313 7.495 55.8313 7.465C55.4413 7.425 55.0513 7.39 54.6613 7.36C54.2813 7.33 53.9563 7.315 53.6863 7.315C53.1163 7.315 52.6963 7.405 52.4263 7.585C52.1563 7.765 52.0213 8.055 52.0213 8.455C52.0213 8.755 52.0813 8.985 52.2013 9.145C52.3213 9.305 52.5213 9.435 52.8013 9.535C53.0913 9.635 53.4863 9.74 53.9863 9.85C54.5763 9.98 55.0763 10.12 55.4863 10.27C55.9063 10.42 56.2413 10.6 56.4913 10.81C56.7513 11.02 56.9413 11.29 57.0613 11.62C57.1813 11.95 57.2413 12.365 57.2413 12.865C57.2413 13.665 57.0963 14.31 56.8063 14.8C56.5263 15.28 56.1163 15.63 55.5763 15.85C55.0463 16.06 54.4063 16.165 53.6563 16.165ZM59.1262 16V5.755H62.9812C63.8313 5.755 64.5363 5.875 65.0962 6.115C65.6562 6.345 66.0762 6.72 66.3562 7.24C66.6462 7.76 66.7912 8.455 66.7912 9.325C66.7912 10.195 66.6462 10.905 66.3562 11.455C66.0762 11.995 65.6562 12.395 65.0962 12.655C64.5363 12.905 63.8313 13.03 62.9812 13.03H61.1962V16H59.1262ZM61.1962 11.335H62.9212C63.5512 11.335 64.0012 11.17 64.2712 10.84C64.5412 10.5 64.6763 10 64.6763 9.34C64.6763 8.66 64.5412 8.175 64.2712 7.885C64.0012 7.595 63.5512 7.45 62.9212 7.45H61.1962V11.335ZM68.5704 16V5.755H75.3804V7.48H70.6404V9.97H74.4804V11.665H70.6404V14.275H75.3804V16H68.5704ZM77.2821 16V5.755H84.0921V7.48H79.3521V9.97H83.1921V11.665H79.3521V14.275H84.0921V16H77.2821ZM85.9938 16V5.755H89.9088C90.7088 5.755 91.3788 5.87 91.9188 6.1C92.4688 6.32 92.9088 6.645 93.2388 7.075C93.5688 7.505 93.8038 8.025 93.9438 8.635C94.0938 9.245 94.1688 9.94 94.1688 10.72C94.1688 11.51 94.0988 12.225 93.9588 12.865C93.8288 13.505 93.6038 14.06 93.2838 14.53C92.9638 15 92.5338 15.365 91.9938 15.625C91.4538 15.875 90.7788 16 89.9688 16H85.9938ZM88.0638 14.26H89.8488C90.3188 14.26 90.6988 14.17 90.9888 13.99C91.2788 13.81 91.4988 13.56 91.6488 13.24C91.8088 12.91 91.9138 12.535 91.9638 12.115C92.0238 11.685 92.0538 11.22 92.0538 10.72C92.0538 10.24 92.0238 9.805 91.9638 9.415C91.9038 9.015 91.7938 8.675 91.6338 8.395C91.4838 8.105 91.2638 7.885 90.9738 7.735C90.6938 7.575 90.3188 7.495 89.8488 7.495H88.0638V14.26ZM101.567 16L99.122 5.755H101.297L103.052 14.005H103.667L105.392 5.755H107.567L105.167 16H101.567ZM109.17 16V5.755H111.24V16H109.17ZM113.59 16V5.755H117.505C118.305 5.755 118.975 5.87 119.515 6.1C120.065 6.32 120.505 6.645 120.835 7.075C121.165 7.505 121.4 8.025 121.54 8.635C121.69 9.245 121.765 9.94 121.765 10.72C121.765 11.51 121.695 12.225 121.555 12.865C121.425 13.505 121.2 14.06 120.88 14.53C120.56 15 120.13 15.365 119.59 15.625C119.05 15.875 118.375 16 117.565 16H113.59ZM115.66 14.26H117.445C117.915 14.26 118.295 14.17 118.585 13.99C118.875 13.81 119.095 13.56 119.245 13.24C119.405 12.91 119.51 12.535 119.56 12.115C119.62 11.685 119.65 11.22 119.65 10.72C119.65 10.24 119.62 9.805 119.56 9.415C119.5 9.015 119.39 8.675 119.23 8.395C119.08 8.105 118.86 7.885 118.57 7.735C118.29 7.575 117.915 7.495 117.445 7.495H115.66V14.26ZM123.766 16V5.755H130.576V7.48H125.836V9.97H129.676V11.665H125.836V14.275H130.576V16H123.766ZM136.513 16.165C135.423 16.165 134.558 15.975 133.918 15.595C133.288 15.205 132.833 14.62 132.553 13.84C132.283 13.06 132.148 12.085 132.148 10.915C132.148 9.735 132.283 8.75 132.553 7.96C132.833 7.17 133.288 6.575 133.918 6.175C134.558 5.775 135.423 5.575 136.513 5.575C137.603 5.575 138.463 5.775 139.093 6.175C139.733 6.575 140.188 7.17 140.458 7.96C140.738 8.75 140.878 9.735 140.878 10.915C140.878 12.105 140.738 13.09 140.458 13.87C140.188 14.65 139.733 15.23 139.093 15.61C138.463 15.98 137.603 16.165 136.513 16.165ZM136.513 14.425C137.143 14.425 137.618 14.3 137.938 14.05C138.268 13.79 138.488 13.4 138.598 12.88C138.708 12.35 138.763 11.695 138.763 10.915C138.763 10.135 138.703 9.48 138.583 8.95C138.473 8.41 138.258 8.005 137.938 7.735C137.618 7.455 137.143 7.315 136.513 7.315C135.893 7.315 135.418 7.455 135.088 7.735C134.768 8.005 134.548 8.41 134.428 8.95C134.308 9.48 134.248 10.135 134.248 10.915C134.248 11.685 134.303 12.33 134.413 12.85C134.533 13.37 134.753 13.765 135.073 14.035C135.403 14.295 135.883 14.425 136.513 14.425Z" fill="#853AF2"/>
<path d="M43.192 30.14C42.9773 30.14 42.716 30.126 42.408 30.098C42.1093 30.07 41.8107 30.0373 41.512 30C41.2133 29.9533 40.9473 29.9113 40.714 29.874L40.77 28.936C41.0033 28.964 41.2647 28.9967 41.554 29.034C41.8527 29.0713 42.142 29.104 42.422 29.132C42.702 29.1507 42.926 29.16 43.094 29.16C43.4767 29.16 43.794 29.1273 44.046 29.062C44.298 28.9873 44.4893 28.866 44.62 28.698C44.7507 28.53 44.816 28.292 44.816 27.984C44.816 27.7507 44.7647 27.5687 44.662 27.438C44.5687 27.3073 44.3867 27.2 44.116 27.116C43.8547 27.032 43.472 26.9527 42.968 26.878C42.4453 26.794 42.0067 26.6913 41.652 26.57C41.3067 26.4393 41.05 26.248 40.882 25.996C40.714 25.744 40.63 25.3847 40.63 24.918C40.63 24.3953 40.7513 23.9847 40.994 23.686C41.2367 23.3873 41.5493 23.1773 41.932 23.056C42.324 22.9253 42.73 22.86 43.15 22.86C43.4113 22.86 43.696 22.874 44.004 22.902C44.3213 22.93 44.6293 22.9673 44.928 23.014C45.2267 23.0513 45.4833 23.0887 45.698 23.126L45.67 24.064C45.446 24.0267 45.1847 23.994 44.886 23.966C44.5873 23.9287 44.2887 23.9007 43.99 23.882C43.6913 23.854 43.43 23.84 43.206 23.84C42.926 23.84 42.674 23.8727 42.45 23.938C42.226 23.994 42.0487 24.0967 41.918 24.246C41.7873 24.3953 41.722 24.6053 41.722 24.876C41.722 25.0813 41.7687 25.2493 41.862 25.38C41.9553 25.5013 42.1327 25.604 42.394 25.688C42.6553 25.772 43.0333 25.856 43.528 25.94C44.1067 26.0333 44.5687 26.15 44.914 26.29C45.2687 26.43 45.5253 26.626 45.684 26.878C45.8427 27.13 45.922 27.4847 45.922 27.942C45.922 28.7633 45.6793 29.3373 45.194 29.664C44.7087 29.9813 44.0413 30.14 43.192 30.14ZM47.9495 33.094V23H49.0275V23.504C49.1768 23.4107 49.3635 23.3173 49.5875 23.224C49.8208 23.1213 50.0682 23.0373 50.3295 22.972C50.5908 22.8973 50.8428 22.86 51.0855 22.86C51.9722 22.86 52.6208 23.1447 53.0315 23.714C53.4422 24.274 53.6475 25.1747 53.6475 26.416C53.6475 27.3307 53.5402 28.0633 53.3255 28.614C53.1202 29.1553 52.7888 29.5473 52.3315 29.79C51.8835 30.0233 51.3002 30.14 50.5815 30.14C50.2922 30.14 49.9982 30.1213 49.6995 30.084C49.4102 30.0467 49.1862 30.014 49.0275 29.986V33.094H47.9495ZM50.5255 29.188C51.0295 29.188 51.4262 29.0947 51.7155 28.908C52.0142 28.7213 52.2242 28.4273 52.3455 28.026C52.4668 27.6153 52.5275 27.0787 52.5275 26.416C52.5275 25.4733 52.3875 24.8107 52.1075 24.428C51.8275 24.036 51.4355 23.84 50.9315 23.84C50.7075 23.84 50.4742 23.868 50.2315 23.924C49.9982 23.98 49.7742 24.05 49.5595 24.134C49.3448 24.2087 49.1675 24.288 49.0275 24.372V29.048C49.1768 29.0667 49.3962 29.0947 49.6855 29.132C49.9748 29.1693 50.2548 29.188 50.5255 29.188ZM58.244 30.14C57.544 30.14 56.9886 30.0047 56.578 29.734C56.1766 29.4633 55.8873 29.062 55.71 28.53C55.5326 27.998 55.444 27.3353 55.444 26.542C55.444 25.6553 55.5653 24.946 55.808 24.414C56.0506 23.8727 56.3913 23.4807 56.83 23.238C57.2686 22.986 57.7866 22.86 58.384 22.86C59.3173 22.86 60.022 23.1213 60.498 23.644C60.974 24.1573 61.212 24.988 61.212 26.136L61.156 26.962H56.55C56.5593 27.69 56.6946 28.2407 56.956 28.614C57.2173 28.9873 57.6886 29.174 58.37 29.174C58.6313 29.174 58.916 29.1693 59.224 29.16C59.5413 29.1413 59.854 29.1227 60.162 29.104C60.47 29.0853 60.7313 29.0667 60.946 29.048L60.974 29.902C60.75 29.9393 60.4746 29.9767 60.148 30.014C59.8306 30.0513 59.504 30.0793 59.168 30.098C58.832 30.126 58.524 30.14 58.244 30.14ZM56.55 26.08H60.12C60.12 25.2213 59.98 24.624 59.7 24.288C59.4293 23.9427 58.9906 23.77 58.384 23.77C57.796 23.77 57.3433 23.9473 57.026 24.302C56.7086 24.6567 56.55 25.2493 56.55 26.08ZM65.7323 30.14C65.0323 30.14 64.477 30.0047 64.0663 29.734C63.665 29.4633 63.3757 29.062 63.1983 28.53C63.021 27.998 62.9323 27.3353 62.9323 26.542C62.9323 25.6553 63.0537 24.946 63.2963 24.414C63.539 23.8727 63.8797 23.4807 64.3183 23.238C64.757 22.986 65.275 22.86 65.8723 22.86C66.8057 22.86 67.5103 23.1213 67.9863 23.644C68.4623 24.1573 68.7003 24.988 68.7003 26.136L68.6443 26.962H64.0383C64.0477 27.69 64.183 28.2407 64.4443 28.614C64.7057 28.9873 65.177 29.174 65.8583 29.174C66.1197 29.174 66.4043 29.1693 66.7123 29.16C67.0297 29.1413 67.3423 29.1227 67.6503 29.104C67.9583 29.0853 68.2197 29.0667 68.4343 29.048L68.4623 29.902C68.2383 29.9393 67.963 29.9767 67.6363 30.014C67.319 30.0513 66.9923 30.0793 66.6563 30.098C66.3203 30.126 66.0123 30.14 65.7323 30.14ZM64.0383 26.08H67.6083C67.6083 25.2213 67.4683 24.624 67.1883 24.288C66.9177 23.9427 66.479 23.77 65.8723 23.77C65.2843 23.77 64.8317 23.9473 64.5143 24.302C64.197 24.6567 64.0383 25.2493 64.0383 26.08ZM72.9547 30.14C72.6747 30.14 72.4087 30.1073 72.1567 30.042C71.9047 29.986 71.6714 29.8833 71.4567 29.734C71.2514 29.5847 71.0694 29.3793 70.9107 29.118C70.752 28.8473 70.6307 28.502 70.5467 28.082C70.4627 27.662 70.4207 27.1533 70.4207 26.556C70.4207 25.7253 70.5187 25.0393 70.7147 24.498C70.9107 23.9473 71.2234 23.5367 71.6527 23.266C72.082 22.9953 72.6514 22.86 73.3607 22.86C73.6314 22.86 73.9347 22.8833 74.2707 22.93C74.6067 22.9673 74.868 23.0047 75.0547 23.042V19.962H76.1467V30H75.0687V29.538C74.9194 29.622 74.7234 29.7107 74.4807 29.804C74.2474 29.8973 73.9954 29.9767 73.7247 30.042C73.4634 30.1073 73.2067 30.14 72.9547 30.14ZM73.0947 29.16C73.3374 29.16 73.58 29.132 73.8227 29.076C74.0747 29.02 74.308 28.9547 74.5227 28.88C74.7374 28.796 74.9147 28.7213 75.0547 28.656V23.966C74.9427 23.9473 74.7887 23.9287 74.5927 23.91C74.3967 23.882 74.1914 23.8587 73.9767 23.84C73.7714 23.8213 73.5847 23.812 73.4167 23.812C72.9407 23.812 72.5674 23.9147 72.2967 24.12C72.026 24.3253 71.83 24.6333 71.7087 25.044C71.5967 25.4453 71.5407 25.9493 71.5407 26.556C71.5407 27.116 71.5827 27.5687 71.6667 27.914C71.7507 28.25 71.8627 28.5113 72.0027 28.698C72.152 28.8753 72.32 28.9967 72.5067 29.062C72.6934 29.1273 72.8894 29.16 73.0947 29.16ZM84.6727 30.14C83.9354 30.14 83.3567 30.0187 82.9367 29.776C82.5167 29.524 82.218 29.1227 82.0407 28.572C81.8727 28.0213 81.7887 27.2933 81.7887 26.388C81.7887 25.5387 81.882 24.8573 82.0687 24.344C82.2647 23.8213 82.5774 23.4433 83.0067 23.21C83.436 22.9767 83.996 22.86 84.6867 22.86C84.8454 22.86 85.0367 22.874 85.2607 22.902C85.494 22.9207 85.732 22.9487 85.9747 22.986C86.2174 23.014 86.4274 23.042 86.6047 23.07L86.5627 23.966C86.404 23.9473 86.222 23.9287 86.0167 23.91C85.8114 23.8913 85.6107 23.8773 85.4147 23.868C85.2187 23.8493 85.0554 23.84 84.9247 23.84C84.3927 23.84 83.9774 23.924 83.6787 24.092C83.3894 24.26 83.184 24.5307 83.0627 24.904C82.9507 25.268 82.8947 25.7627 82.8947 26.388C82.8947 27.0693 82.946 27.6153 83.0487 28.026C83.1514 28.4273 83.3474 28.7167 83.6367 28.894C83.926 29.0713 84.3554 29.16 84.9247 29.16C85.0554 29.16 85.2187 29.1553 85.4147 29.146C85.62 29.1273 85.8254 29.1087 86.0307 29.09C86.2454 29.0713 86.432 29.0573 86.5907 29.048L86.6187 29.944C86.432 29.972 86.2174 30 85.9747 30.028C85.732 30.056 85.494 30.0793 85.2607 30.098C85.0274 30.126 84.8314 30.14 84.6727 30.14ZM91.2883 30.14C90.5043 30.14 89.893 30.0047 89.4543 29.734C89.025 29.4633 88.7217 29.0527 88.5443 28.502C88.3763 27.9513 88.2923 27.256 88.2923 26.416C88.2923 25.6133 88.3857 24.9507 88.5723 24.428C88.7683 23.9053 89.0857 23.5133 89.5243 23.252C89.963 22.9907 90.551 22.86 91.2883 22.86C92.035 22.86 92.6277 22.9907 93.0663 23.252C93.505 23.5133 93.8177 23.9053 94.0043 24.428C94.2003 24.9507 94.2983 25.6133 94.2983 26.416C94.2983 27.256 94.2097 27.9513 94.0323 28.502C93.8643 29.0527 93.561 29.4633 93.1223 29.734C92.693 30.0047 92.0817 30.14 91.2883 30.14ZM91.2883 29.202C91.8297 29.202 92.2357 29.1087 92.5063 28.922C92.777 28.726 92.9543 28.4227 93.0383 28.012C93.1317 27.6013 93.1783 27.0693 93.1783 26.416C93.1783 25.772 93.1223 25.2587 93.0103 24.876C92.8983 24.4933 92.707 24.218 92.4363 24.05C92.1657 23.882 91.783 23.798 91.2883 23.798C90.803 23.798 90.4203 23.882 90.1403 24.05C89.8697 24.218 89.6783 24.4933 89.5663 24.876C89.4543 25.2587 89.3983 25.772 89.3983 26.416C89.3983 27.0693 89.4403 27.6013 89.5243 28.012C89.6177 28.4227 89.7997 28.726 90.0703 28.922C90.341 29.1087 90.747 29.202 91.2883 29.202ZM96.4305 30V23H97.5085V23.49C97.6672 23.3967 97.8632 23.3033 98.0965 23.21C98.3392 23.1167 98.5958 23.0373 98.8665 22.972C99.1372 22.8973 99.3985 22.86 99.6505 22.86C100.295 22.86 100.785 22.9767 101.121 23.21C101.466 23.434 101.704 23.798 101.835 24.302C101.965 24.806 102.031 25.4687 102.031 26.29V30H100.939V26.332C100.939 25.7253 100.901 25.24 100.827 24.876C100.761 24.512 100.621 24.2507 100.407 24.092C100.201 23.924 99.8838 23.84 99.4545 23.84C99.2212 23.84 98.9785 23.868 98.7265 23.924C98.4838 23.9707 98.2552 24.036 98.0405 24.12C97.8258 24.1947 97.6485 24.2693 97.5085 24.344V30H96.4305ZM106.68 30.154C106.194 30.154 105.807 30.0793 105.518 29.93C105.238 29.7807 105.037 29.524 104.916 29.16C104.794 28.7867 104.734 28.264 104.734 27.592V23.938H103.74V23H104.734V20.858H105.812V23H108.01V23.938H105.812V27.27C105.812 27.7647 105.83 28.152 105.868 28.432C105.914 28.7027 106.008 28.894 106.148 29.006C106.288 29.118 106.507 29.174 106.806 29.174C106.899 29.174 107.02 29.1693 107.17 29.16C107.319 29.1507 107.468 29.1413 107.618 29.132C107.776 29.1133 107.916 29.0993 108.038 29.09L108.108 30C107.902 30.028 107.66 30.0607 107.38 30.098C107.1 30.1353 106.866 30.154 106.68 30.154ZM109.712 30V23H110.79V23.938C110.967 23.8167 111.191 23.686 111.462 23.546C111.733 23.3967 112.031 23.2567 112.358 23.126C112.685 22.9953 113.011 22.902 113.338 22.846V23.952C113.021 24.0173 112.699 24.106 112.372 24.218C112.045 24.3207 111.742 24.4327 111.462 24.554C111.191 24.6753 110.967 24.7827 110.79 24.876V30H109.712ZM117.673 30.14C116.889 30.14 116.278 30.0047 115.839 29.734C115.41 29.4633 115.107 29.0527 114.929 28.502C114.761 27.9513 114.677 27.256 114.677 26.416C114.677 25.6133 114.771 24.9507 114.957 24.428C115.153 23.9053 115.471 23.5133 115.909 23.252C116.348 22.9907 116.936 22.86 117.673 22.86C118.42 22.86 119.013 22.9907 119.451 23.252C119.89 23.5133 120.203 23.9053 120.389 24.428C120.585 24.9507 120.683 25.6133 120.683 26.416C120.683 27.256 120.595 27.9513 120.417 28.502C120.249 29.0527 119.946 29.4633 119.507 29.734C119.078 30.0047 118.467 30.14 117.673 30.14ZM117.673 29.202C118.215 29.202 118.621 29.1087 118.891 28.922C119.162 28.726 119.339 28.4227 119.423 28.012C119.517 27.6013 119.563 27.0693 119.563 26.416C119.563 25.772 119.507 25.2587 119.395 24.876C119.283 24.4933 119.092 24.218 118.821 24.05C118.551 23.882 118.168 23.798 117.673 23.798C117.188 23.798 116.805 23.882 116.525 24.05C116.255 24.218 116.063 24.4933 115.951 24.876C115.839 25.2587 115.783 25.772 115.783 26.416C115.783 27.0693 115.825 27.6013 115.909 28.012C116.003 28.4227 116.185 28.726 116.455 28.922C116.726 29.1087 117.132 29.202 117.673 29.202ZM122.9 30V19.962H123.978V30H122.9ZM126.587 30V19.962H127.665V30H126.587ZM132.669 30.14C131.969 30.14 131.413 30.0047 131.003 29.734C130.601 29.4633 130.312 29.062 130.135 28.53C129.957 27.998 129.869 27.3353 129.869 26.542C129.869 25.6553 129.99 24.946 130.233 24.414C130.475 23.8727 130.816 23.4807 131.255 23.238C131.693 22.986 132.211 22.86 132.809 22.86C133.742 22.86 134.447 23.1213 134.923 23.644C135.399 24.1573 135.637 24.988 135.637 26.136L135.581 26.962H130.975C130.984 27.69 131.119 28.2407 131.381 28.614C131.642 28.9873 132.113 29.174 132.795 29.174C133.056 29.174 133.341 29.1693 133.649 29.16C133.966 29.1413 134.279 29.1227 134.587 29.104C134.895 29.0853 135.156 29.0667 135.371 29.048L135.399 29.902C135.175 29.9393 134.899 29.9767 134.573 30.014C134.255 30.0513 133.929 30.0793 133.593 30.098C133.257 30.126 132.949 30.14 132.669 30.14ZM130.975 26.08H134.545C134.545 25.2213 134.405 24.624 134.125 24.288C133.854 23.9427 133.415 23.77 132.809 23.77C132.221 23.77 131.768 23.9473 131.451 24.302C131.133 24.6567 130.975 25.2493 130.975 26.08ZM137.679 30V23H138.757V23.938C138.934 23.8167 139.158 23.686 139.429 23.546C139.7 23.3967 139.998 23.2567 140.325 23.126C140.652 22.9953 140.978 22.902 141.305 22.846V23.952C140.988 24.0173 140.666 24.106 140.339 24.218C140.012 24.3207 139.709 24.4327 139.429 24.554C139.158 24.6753 138.934 24.7827 138.757 24.876V30H137.679Z" fill="black"/>
<g clip-path="url(#clip0_401_30239)">
<path d="M0 6.375C0 2.85418 2.85418 0 6.375 0H27.625C31.1458 0 34 2.85418 34 6.375V27.625C34 31.1458 31.1458 34 27.625 34H6.375C2.85418 34 0 31.1458 0 27.625V6.375Z" fill="url(#paint0_linear_401_30239)"/>
<g filter="url(#filter0_d_401_30239)">
<path fill-rule="evenodd" clip-rule="evenodd" d="M26.4715 14.1325C25.8314 14.3912 25.1029 14.082 24.8442 13.4419C24.4197 12.3916 23.8079 11.4298 23.0407 10.6024L21.959 11.6841C21.4708 12.1723 20.6794 12.1723 20.1912 11.6841C19.7031 11.1959 19.7031 10.4045 20.1912 9.91633L21.0996 9.00794C20.3967 8.57478 19.637 8.23578 18.8399 8.00175C17.4936 7.60648 16.0754 7.52088 14.6913 7.75135C13.8899 7.88481 13.1119 8.12224 12.3766 8.4558L12.9746 9.05903C13.4606 9.54929 13.4572 10.3407 12.9669 10.8268C12.4767 11.3128 11.6852 11.3094 11.1992 10.8191L10.2128 9.82412C9.34964 10.554 8.62499 11.4365 8.07632 12.4299C7.61339 13.268 7.28393 14.1702 7.09726 15.1039L9.03692 15.0934C9.72726 15.0897 10.2899 15.6463 10.2937 16.3366C10.2974 17.0269 9.74081 17.5896 9.05047 17.5934L7.07168 17.6041C7.02754 17.6043 6.98392 17.6023 6.94094 17.598C7.01341 18.6009 7.24819 19.588 7.63852 20.5203C8.08294 21.5818 8.71957 22.5495 9.51422 23.3758L10.1289 22.728C10.6041 22.2273 11.3953 22.2066 11.8961 22.6818C12.3968 23.157 12.4176 23.9482 11.9424 24.4489L10.5832 25.8812C10.1576 26.3296 9.47868 26.3931 8.98181 26.0602C8.7741 26.018 8.57432 25.9224 8.40408 25.7719C7.07008 24.5932 6.02001 23.1279 5.33248 21.4858C4.64496 19.8437 4.3378 18.0674 4.43399 16.2898C4.53019 14.5122 5.02724 12.7794 5.88795 11.2211C6.74866 9.66285 7.95072 8.31944 9.40413 7.2915C10.8575 6.26356 12.5247 5.57771 14.2807 5.28531C16.0367 4.9929 17.8361 5.10151 19.5442 5.603C21.2523 6.1045 22.8248 6.98588 24.1441 8.18117C25.4633 9.37647 26.495 10.8547 27.1621 12.5052C27.4207 13.1453 27.1116 13.8738 26.4715 14.1325Z" fill="white"/>
</g>
<g filter="url(#filter1_d_401_30239)">
<path fill-rule="evenodd" clip-rule="evenodd" d="M18.1486 16.2784C18.1663 16.3897 18.1755 16.5039 18.1755 16.6202C18.1755 17.8135 17.2081 18.7809 16.0147 18.7809C14.8214 18.7809 13.854 17.8135 13.854 16.6202C13.854 15.4387 14.8023 14.4787 15.9792 14.4597C16.99 13.5186 18.7137 12.2275 19.2301 12.5915C19.7776 12.9775 18.8009 15.1068 18.1486 16.2784Z" fill="white"/>
</g>
<g filter="url(#filter2_d_401_30239)">
<path fill-rule="evenodd" clip-rule="evenodd" d="M30.2917 17.4635C30.5227 16.1136 29.1835 15.0335 27.9131 15.5451L23.2647 17.4169C22.6243 17.6747 22.3142 18.4029 22.5721 19.0433C22.83 19.6837 23.5581 19.9938 24.1985 19.7359L25.1771 19.3418L22.6738 22.3458L20.2297 20.3311C19.8227 19.9956 19.2668 19.9607 18.8313 20.2005C18.6778 20.2697 18.5359 20.3712 18.4162 20.5044L12.5195 27.0662C12.058 27.5797 12.1002 28.37 12.6137 28.8314C13.1272 29.2929 13.9175 29.2507 14.379 28.7372L19.5357 22.9989L21.9204 24.9646C21.9748 25.0095 22.0319 25.049 22.091 25.0832C22.6202 25.4869 23.3785 25.4053 23.8088 24.889L27.1765 20.8477L26.9826 21.9813C26.8662 22.6618 27.3235 23.3078 28.0039 23.4242C28.6844 23.5406 29.3304 23.0833 29.4468 22.4029L30.2917 17.4635Z" fill="#53D8EA"/>
</g>
</g>
<defs>
<filter id="filter0_d_401_30239" x="-25.5833" y="-12.875" width="82.8367" height="81.1458" filterUnits="userSpaceOnUse" color-interpolation-filters="sRGB">
<feFlood flood-opacity="0" result="BackgroundImageFix"/>
<feColorMatrix in="SourceAlpha" type="matrix" values="0 0 0 0 0 0 0 0 0 0 0 0 0 0 0 0 0 0 127 0" result="hardAlpha"/>
<feOffset dy="12"/>
<feGaussianBlur stdDeviation="15"/>
<feComposite in2="hardAlpha" operator="out"/>
<feColorMatrix type="matrix" values="0 0 0 0 0 0 0 0 0 0 0 0 0 0 0 0 0 0 0.25 0"/>
<feBlend mode="normal" in2="BackgroundImageFix" result="effect1_dropShadow_401_30239"/>
<feBlend mode="normal" in="SourceGraphic" in2="effect1_dropShadow_401_30239" result="shape"/>
</filter>
<filter id="filter1_d_401_30239" x="-16.146" y="-5.4715" width="65.5366" height="66.2524" filterUnits="userSpaceOnUse" color-interpolation-filters="sRGB">
<feFlood flood-opacity="0" result="BackgroundImageFix"/>
<feColorMatrix in="SourceAlpha" type="matrix" values="0 0 0 0 0 0 0 0 0 0 0 0 0 0 0 0 0 0 127 0" result="hardAlpha"/>
<feOffset dy="12"/>
<feGaussianBlur stdDeviation="15"/>
<feComposite in2="hardAlpha" operator="out"/>
<feColorMatrix type="matrix" values="0 0 0 0 0 0 0 0 0 0 0 0 0 0 0 0 0 0 0.25 0"/>
<feBlend mode="normal" in2="BackgroundImageFix" result="effect1_dropShadow_401_30239"/>
<feBlend mode="normal" in="SourceGraphic" in2="effect1_dropShadow_401_30239" result="shape"/>
</filter>
<filter id="filter2_d_401_30239" x="-17.8008" y="-2.58435" width="78.1187" height="73.736" filterUnits="userSpaceOnUse" color-interpolation-filters="sRGB">
<feFlood flood-opacity="0" result="BackgroundImageFix"/>
<feColorMatrix in="SourceAlpha" type="matrix" values="0 0 0 0 0 0 0 0 0 0 0 0 0 0 0 0 0 0 127 0" result="hardAlpha"/>
<feOffset dy="12"/>
<feGaussianBlur stdDeviation="15"/>
<feComposite in2="hardAlpha" operator="out"/>
<feColorMatrix type="matrix" values="0 0 0 0 0 0 0 0 0 0 0 0 0 0 0 0 0 0 0.25 0"/>
<feBlend mode="normal" in2="BackgroundImageFix" result="effect1_dropShadow_401_30239"/>
<feBlend mode="normal" in="SourceGraphic" in2="effect1_dropShadow_401_30239" result="shape"/>
</filter>
<linearGradient id="paint0_linear_401_30239" x1="17" y1="0" x2="17" y2="34" gradientUnits="userSpaceOnUse">
<stop stop-color="#18B3E4"/>
<stop offset="0.296875" stop-color="#3E88E9"/>
<stop offset="1" stop-color="#9924F5"/>
</linearGradient>
<clipPath id="clip0_401_30239">
<rect width="34" height="34" fill="white"/>
</clipPath>
</defs>
</svg>
